<svg xmlns="http://www.w3.org/2000/svg" xmlns:xlink="http://www.w3.org/1999/xlink" width="2000" zoomAndPan="magnify" viewBox="0 0 1500 1499.999933" height="2000" preserveAspectRatio="xMidYMid meet" version="1.0"><defs><g/></defs><g fill="#000000" fill-opacity="1"><g transform="translate(5.003939, 907.124902)"><g><path d="M 12.921875 -269.046875 C 19.253906 -268.785156 27.800781 -268.53125 38.5625 -268.28125 C 49.332031 -268.03125 60.039062 -267.90625 70.6875 -267.90625 C 82.84375 -267.90625 94.617188 -268.03125 106.015625 -268.28125 C 117.421875 -268.53125 125.53125 -268.65625 130.34375 -268.65625 C 165.550781 -268.65625 191.894531 -261.6875 209.375 -247.75 C 226.851562 -233.820312 235.59375 -215.835938 235.59375 -193.796875 C 235.59375 -184.679688 233.816406 -175.117188 230.265625 -165.109375 C 226.722656 -155.097656 220.707031 -145.847656 212.21875 -137.359375 C 203.738281 -128.878906 192.148438 -121.976562 177.453125 -116.65625 C 162.765625 -111.34375 144.273438 -108.6875 121.984375 -108.6875 L 83.21875 -108.6875 L 83.21875 -116.28125 L 118.1875 -116.28125 C 133.125 -116.28125 144.457031 -119.695312 152.1875 -126.53125 C 159.914062 -133.375 165.234375 -142.367188 168.140625 -153.515625 C 171.054688 -164.660156 172.515625 -176.695312 172.515625 -189.625 C 172.515625 -213.6875 168.96875 -231.671875 161.875 -243.578125 C 154.78125 -255.484375 142.625 -261.4375 125.40625 -261.4375 C 115.519531 -261.4375 109.117188 -259.28125 106.203125 -254.96875 C 103.296875 -250.664062 101.84375 -241.929688 101.84375 -228.765625 L 101.84375 -42.5625 C 101.84375 -32.675781 102.851562 -25.328125 104.875 -20.515625 C 106.90625 -15.703125 110.832031 -12.535156 116.65625 -11.015625 C 122.488281 -9.492188 131.101562 -8.609375 142.5 -8.359375 L 142.5 0 C 134.644531 -0.25 124.507812 -0.5 112.09375 -0.75 C 99.6875 -1.007812 86.640625 -1.140625 72.953125 -1.140625 C 62.066406 -1.140625 51.425781 -1.007812 41.03125 -0.75 C 30.644531 -0.5 21.273438 -0.25 12.921875 0 L 12.921875 -7.59375 C 21.023438 -8.101562 27.101562 -9.117188 31.15625 -10.640625 C 35.207031 -12.160156 37.929688 -15.195312 39.328125 -19.75 C 40.722656 -24.3125 41.421875 -31.15625 41.421875 -40.28125 L 41.421875 -228.765625 C 41.421875 -238.128906 40.722656 -245.03125 39.328125 -249.46875 C 37.929688 -253.90625 35.144531 -256.945312 30.96875 -258.59375 C 26.789062 -260.238281 20.773438 -261.1875 12.921875 -261.4375 Z M 12.921875 -269.046875 "/></g></g></g><g fill="#000000" fill-opacity="1"><g transform="translate(242.500366, 907.124902)"><g><path d="M 107.15625 -201.78125 C 125.65625 -201.78125 141.867188 -198.359375 155.796875 -191.515625 C 169.734375 -184.679688 180.628906 -173.660156 188.484375 -158.453125 C 196.335938 -143.253906 200.265625 -123.117188 200.265625 -98.046875 C 200.265625 -72.960938 196.335938 -52.882812 188.484375 -37.8125 C 180.628906 -22.738281 169.734375 -11.78125 155.796875 -4.9375 C 141.867188 1.894531 125.65625 5.3125 107.15625 5.3125 C 89.175781 5.3125 73.15625 1.894531 59.09375 -4.9375 C 45.03125 -11.78125 34.007812 -22.738281 26.03125 -37.8125 C 18.050781 -52.882812 14.0625 -72.960938 14.0625 -98.046875 C 14.0625 -123.117188 18.050781 -143.253906 26.03125 -158.453125 C 34.007812 -173.660156 45.03125 -184.679688 59.09375 -191.515625 C 73.15625 -198.359375 89.175781 -201.78125 107.15625 -201.78125 Z M 107.15625 -194.1875 C 97.019531 -194.1875 88.53125 -186.644531 81.6875 -171.5625 C 74.851562 -156.488281 71.4375 -131.984375 71.4375 -98.046875 C 71.4375 -64.097656 74.851562 -39.648438 81.6875 -24.703125 C 88.53125 -9.753906 97.019531 -2.28125 107.15625 -2.28125 C 117.539062 -2.28125 126.085938 -9.753906 132.796875 -24.703125 C 139.515625 -39.648438 142.875 -64.097656 142.875 -98.046875 C 142.875 -131.984375 139.515625 -156.488281 132.796875 -171.5625 C 126.085938 -186.644531 117.539062 -194.1875 107.15625 -194.1875 Z M 107.15625 -194.1875 "/></g></g></g><g fill="#000000" fill-opacity="1"><g transform="translate(457.197185, 907.124902)"><g><path d="M 196.078125 -297.546875 L 196.078125 -41.796875 C 196.078125 -30.398438 197.847656 -21.976562 201.390625 -16.53125 C 204.941406 -11.082031 211.28125 -8.359375 220.40625 -8.359375 L 220.40625 -0.375 C 212.550781 -1.132812 204.695312 -1.515625 196.84375 -1.515625 C 186.195312 -1.515625 176.25 -1.132812 167 -0.375 C 157.757812 0.382812 149.210938 1.773438 141.359375 3.796875 L 141.359375 -251.9375 C 141.359375 -263.34375 139.644531 -271.765625 136.21875 -277.203125 C 132.800781 -282.648438 126.410156 -285.375 117.046875 -285.375 L 117.046875 -293.359375 C 125.148438 -292.597656 133 -292.21875 140.59375 -292.21875 C 150.988281 -292.21875 160.867188 -292.660156 170.234375 -293.546875 C 179.609375 -294.429688 188.222656 -295.765625 196.078125 -297.546875 Z M 99.1875 -201.78125 C 110.332031 -201.78125 120.144531 -199.941406 128.625 -196.265625 C 137.113281 -192.597656 143.765625 -186.457031 148.578125 -177.84375 L 144.015625 -173.65625 C 140.722656 -179.738281 136.351562 -184.109375 130.90625 -186.765625 C 125.457031 -189.429688 119.695312 -190.765625 113.625 -190.765625 C 100.695312 -190.765625 90.429688 -183.226562 82.828125 -168.15625 C 75.234375 -153.082031 71.5625 -129.835938 71.8125 -98.421875 C 71.8125 -76.890625 73.269531 -59.722656 76.1875 -46.921875 C 79.101562 -34.128906 83.285156 -24.945312 88.734375 -19.375 C 94.179688 -13.800781 100.453125 -11.015625 107.546875 -11.015625 C 116.148438 -11.015625 123.875 -14.4375 130.71875 -21.28125 C 137.5625 -28.125 141.234375 -37.367188 141.734375 -49.015625 L 143.640625 -35.71875 C 139.835938 -22.289062 133.691406 -12.09375 125.203125 -5.125 C 116.722656 1.832031 105.640625 5.3125 91.953125 5.3125 C 77.015625 5.3125 63.65625 1.640625 51.875 -5.703125 C 40.09375 -13.046875 30.90625 -24.378906 24.3125 -39.703125 C 17.726562 -55.035156 14.4375 -74.863281 14.4375 -99.1875 C 14.4375 -122.238281 18.109375 -141.300781 25.453125 -156.375 C 32.804688 -171.445312 42.878906 -182.78125 55.671875 -190.375 C 68.460938 -197.976562 82.96875 -201.78125 99.1875 -201.78125 Z M 99.1875 -201.78125 "/></g></g></g><g fill="#c9a84c" fill-opacity="1"><g transform="translate(684.445287, 907.124902)"><g><path d="M 86.640625 -200.640625 L 86.640625 31.15625 C 86.640625 43.0625 89.675781 50.976562 95.75 54.90625 C 101.832031 58.832031 110.195312 60.796875 120.84375 60.796875 L 120.84375 68.78125 C 114.25 68.53125 105.1875 68.210938 93.65625 67.828125 C 82.132812 67.453125 69.914062 67.265625 57 67.265625 C 47.625 67.265625 38.4375 67.453125 29.4375 67.828125 C 20.445312 68.210938 13.675781 68.53125 9.125 68.78125 L 9.125 60.796875 C 17.476562 60.796875 23.363281 59.019531 26.78125 55.46875 C 30.207031 51.925781 31.921875 45.085938 31.921875 34.953125 L 31.921875 -155.046875 C 31.921875 -166.441406 30.144531 -174.863281 26.59375 -180.3125 C 23.050781 -185.757812 16.71875 -188.484375 7.59375 -188.484375 L 7.59375 -196.453125 C 15.707031 -195.691406 23.5625 -195.3125 31.15625 -195.3125 C 41.539062 -195.3125 51.421875 -195.753906 60.796875 -196.640625 C 70.171875 -197.535156 78.785156 -198.867188 86.640625 -200.640625 Z M 145.546875 -201.78125 C 158.460938 -201.78125 169.984375 -198.296875 180.109375 -191.328125 C 190.242188 -184.359375 198.351562 -173.84375 204.4375 -159.78125 C 210.519531 -145.726562 213.5625 -128.1875 213.5625 -107.15625 C 213.5625 -88.664062 211.46875 -72.453125 207.28125 -58.515625 C 203.101562 -44.585938 197.148438 -32.875 189.421875 -23.375 C 181.703125 -13.875 172.457031 -6.71875 161.6875 -1.90625 C 150.925781 2.90625 138.832031 5.3125 125.40625 5.3125 C 115.519531 5.3125 106.523438 3.601562 98.421875 0.1875 C 90.316406 -3.226562 84.109375 -8.101562 79.796875 -14.4375 L 83.59375 -19.375 C 86.132812 -14.820312 89.742188 -11.273438 94.421875 -8.734375 C 99.109375 -6.203125 104.492188 -4.9375 110.578125 -4.9375 C 121.984375 -4.9375 130.976562 -8.800781 137.5625 -16.53125 C 144.144531 -24.257812 148.894531 -35.148438 151.8125 -49.203125 C 154.726562 -63.265625 156.1875 -80.050781 156.1875 -99.5625 C 156.1875 -121.34375 154.789062 -138.441406 152 -150.859375 C 149.207031 -163.273438 145.40625 -172.140625 140.59375 -177.453125 C 135.78125 -182.773438 129.957031 -185.4375 123.125 -185.4375 C 114 -185.4375 105.695312 -181.890625 98.21875 -174.796875 C 90.75 -167.703125 86.507812 -157.570312 85.5 -144.40625 L 83.59375 -157.703125 C 88.15625 -172.140625 95.945312 -183.09375 106.96875 -190.5625 C 117.988281 -198.039062 130.847656 -201.78125 145.546875 -201.78125 Z M 145.546875 -201.78125 "/></g></g></g><g fill="#c9a84c" fill-opacity="1"><g transform="translate(912.441877, 907.124902)"><g><path d="M 58.53125 -294.5 C 69.164062 -294.5 77.585938 -291.898438 83.796875 -286.703125 C 90.003906 -281.515625 93.109375 -274.359375 93.109375 -265.234375 C 93.109375 -256.117188 90.003906 -248.960938 83.796875 -243.765625 C 77.585938 -238.578125 69.164062 -235.984375 58.53125 -235.984375 C 47.882812 -235.984375 39.457031 -238.578125 33.25 -243.765625 C 27.050781 -248.960938 23.953125 -256.117188 23.953125 -265.234375 C 23.953125 -274.359375 27.050781 -281.515625 33.25 -286.703125 C 39.457031 -291.898438 47.882812 -294.5 58.53125 -294.5 Z M 88.15625 -200.640625 L 88.15625 -35.34375 C 88.15625 -24.695312 89.992188 -17.472656 93.671875 -13.671875 C 97.347656 -9.878906 103.617188 -7.984375 112.484375 -7.984375 L 112.484375 0 C 107.921875 -0.25 100.828125 -0.5625 91.203125 -0.9375 C 81.578125 -1.320312 71.820312 -1.515625 61.9375 -1.515625 C 52.0625 -1.515625 42.054688 -1.320312 31.921875 -0.9375 C 21.785156 -0.5625 14.1875 -0.25 9.125 0 L 9.125 -7.984375 C 17.988281 -7.984375 24.253906 -9.878906 27.921875 -13.671875 C 31.597656 -17.472656 33.4375 -24.695312 33.4375 -35.34375 L 33.4375 -155.046875 C 33.4375 -166.441406 31.726562 -174.863281 28.3125 -180.3125 C 24.894531 -185.757812 18.5 -188.484375 9.125 -188.484375 L 9.125 -196.453125 C 17.226562 -195.691406 25.082031 -195.3125 32.6875 -195.3125 C 43.320312 -195.3125 53.257812 -195.753906 62.5 -196.640625 C 71.75 -197.535156 80.300781 -198.867188 88.15625 -200.640625 Z M 88.15625 -200.640625 "/></g></g></g><g fill="#c9a84c" fill-opacity="1"><g transform="translate(1032.140132, 907.124902)"><g><path d="M 86.640625 -297.546875 L 86.640625 -35.34375 C 86.640625 -24.695312 88.472656 -17.472656 92.140625 -13.671875 C 95.816406 -9.878906 102.085938 -7.984375 110.953125 -7.984375 L 110.953125 0 C 106.140625 -0.25 98.921875 -0.5625 89.296875 -0.9375 C 79.671875 -1.320312 69.921875 -1.515625 60.046875 -1.515625 C 50.160156 -1.515625 40.210938 -1.320312 30.203125 -0.9375 C 20.203125 -0.5625 12.664062 -0.25 7.59375 0 L 7.59375 -7.984375 C 16.46875 -7.984375 22.738281 -9.878906 26.40625 -13.671875 C 30.082031 -17.472656 31.921875 -24.695312 31.921875 -35.34375 L 31.921875 -251.9375 C 31.921875 -263.34375 30.207031 -271.765625 26.78125 -277.203125 C 23.363281 -282.648438 16.96875 -285.375 7.59375 -285.375 L 7.59375 -293.359375 C 15.707031 -292.597656 23.5625 -292.21875 31.15625 -292.21875 C 41.539062 -292.21875 51.421875 -292.660156 60.796875 -293.546875 C 70.171875 -294.429688 78.785156 -295.765625 86.640625 -297.546875 Z M 86.640625 -297.546875 "/></g></g></g><g fill="#c9a84c" fill-opacity="1"><g transform="translate(1146.518395, 907.124902)"><g><path d="M 107.15625 -201.78125 C 125.65625 -201.78125 141.867188 -198.359375 155.796875 -191.515625 C 169.734375 -184.679688 180.628906 -173.660156 188.484375 -158.453125 C 196.335938 -143.253906 200.265625 -123.117188 200.265625 -98.046875 C 200.265625 -72.960938 196.335938 -52.882812 188.484375 -37.8125 C 180.628906 -22.738281 169.734375 -11.78125 155.796875 -4.9375 C 141.867188 1.894531 125.65625 5.3125 107.15625 5.3125 C 89.175781 5.3125 73.15625 1.894531 59.09375 -4.9375 C 45.03125 -11.78125 34.007812 -22.738281 26.03125 -37.8125 C 18.050781 -52.882812 14.0625 -72.960938 14.0625 -98.046875 C 14.0625 -123.117188 18.050781 -143.253906 26.03125 -158.453125 C 34.007812 -173.660156 45.03125 -184.679688 59.09375 -191.515625 C 73.15625 -198.359375 89.175781 -201.78125 107.15625 -201.78125 Z M 107.15625 -194.1875 C 97.019531 -194.1875 88.53125 -186.644531 81.6875 -171.5625 C 74.851562 -156.488281 71.4375 -131.984375 71.4375 -98.046875 C 71.4375 -64.097656 74.851562 -39.648438 81.6875 -24.703125 C 88.53125 -9.753906 97.019531 -2.28125 107.15625 -2.28125 C 117.539062 -2.28125 126.085938 -9.753906 132.796875 -24.703125 C 139.515625 -39.648438 142.875 -64.097656 142.875 -98.046875 C 142.875 -131.984375 139.515625 -156.488281 132.796875 -171.5625 C 126.085938 -186.644531 117.539062 -194.1875 107.15625 -194.1875 Z M 107.15625 -194.1875 "/></g></g></g><g fill="#c9a84c" fill-opacity="1"><g transform="translate(1361.215214, 907.124902)"><g><path d="M 86.265625 -258.78125 L 86.265625 -196.453125 L 131.09375 -196.453125 L 131.09375 -188.859375 L 86.265625 -188.859375 L 86.265625 -35.34375 C 86.265625 -27.738281 87.65625 -22.351562 90.4375 -19.1875 C 93.226562 -16.019531 97.410156 -14.4375 102.984375 -14.4375 C 107.535156 -14.4375 112.09375 -16.144531 116.65625 -19.5625 C 121.21875 -22.988281 125.269531 -28.878906 128.8125 -37.234375 L 135.28125 -33.8125 C 131.226562 -22.414062 125.082031 -13.046875 116.84375 -5.703125 C 108.613281 1.640625 97.40625 5.3125 83.21875 5.3125 C 74.863281 5.3125 67.519531 4.234375 61.1875 2.078125 C 54.851562 -0.0664062 49.53125 -3.289062 45.21875 -7.59375 C 39.644531 -13.164062 35.972656 -20.066406 34.203125 -28.296875 C 32.429688 -36.535156 31.546875 -47.242188 31.546875 -60.421875 L 31.546875 -188.859375 L -0.375 -188.859375 L -0.375 -196.453125 L 31.546875 -196.453125 L 31.546875 -246.625 C 42.179688 -246.625 51.992188 -247.570312 60.984375 -249.46875 C 69.984375 -251.363281 78.410156 -254.46875 86.265625 -258.78125 Z M 86.265625 -258.78125 "/></g></g></g></svg>